<svg width="30" height="30" viewBox="0 0 30 30" fill="none" xmlns="http://www.w3.org/2000/svg">
<path fill-rule="evenodd" clip-rule="evenodd" d="M15 26.4844C8.65734 26.4844 3.51562 21.3427 3.51562 15C3.51562 8.65734 8.65734 3.51562 15 3.51562C21.3427 3.51562 26.4844 8.65734 26.4844 15C26.4844 21.3427 21.3427 26.4844 15 26.4844ZM15 25.6641C20.8896 25.6641 25.6641 20.8896 25.6641 15C25.6641 9.11039 20.8896 4.33594 15 4.33594C9.11039 4.33594 4.33594 9.11039 4.33594 15C4.33594 20.8896 9.11039 25.6641 15 25.6641Z" fill="white"/>
<path fill-rule="evenodd" clip-rule="evenodd" d="M6.11523 11.0738C6.60672 9.89844 7.31195 9.21523 7.50238 9.02199C7.69281 8.82887 7.96316 8.92309 8.14422 9.02199C8.32527 9.12101 12.8637 13.6668 13.0663 13.8951C13.2688 14.1234 13.4835 14.4639 12.9021 14.4639C12.3207 14.4639 6.60824 14.414 6.11523 14.38C5.62211 14.3459 5.47656 14.0584 5.47656 13.8127C5.47656 13.5671 5.62363 12.2493 6.11523 11.0738ZM11.6057 6.01684C12.7845 5.5332 13.6248 5.56496 13.8961 5.56309C14.1674 5.56121 14.2919 5.81891 14.35 6.01684C14.408 6.21488 14.4502 12.6772 14.432 12.9818C14.4137 13.2864 14.4188 13.6243 14.0077 13.2131C13.5965 12.802 9.59242 8.72738 9.26793 8.35473C8.94332 7.98195 9.04375 7.67562 9.21754 7.50195C9.39121 7.32828 10.4268 6.50059 11.6057 6.01684ZM18.8118 6.11328C19.9872 6.60477 20.6704 7.31 20.8636 7.50043C21.0568 7.69086 20.9625 7.96121 20.8636 8.14226C20.7646 8.32332 16.2188 12.8618 15.9905 13.0644C15.7622 13.2669 15.4217 13.4816 15.4217 12.9002C15.4217 12.3187 15.4716 6.60629 15.5056 6.11328C15.5397 5.62016 15.8273 5.47461 16.0729 5.47461C16.3185 5.47461 17.6363 5.62168 18.8118 6.11328ZM23.8688 11.6037C24.3524 12.7825 24.3207 13.6229 24.3225 13.8942C24.3244 14.1655 24.0667 14.2899 23.8688 14.348C23.6707 14.4061 17.2084 14.4482 16.9039 14.4301C16.5992 14.4118 16.2613 14.4168 16.6725 14.0057C17.0836 13.5945 21.1582 9.59047 21.5309 9.26598C21.9037 8.94137 22.21 9.0418 22.3837 9.21559C22.5573 9.38926 23.385 10.4248 23.8688 11.6037ZM23.7723 18.927C23.2809 20.1024 22.5756 20.7856 22.3852 20.9789C22.1948 21.172 21.9244 21.0778 21.7434 20.9789C21.5623 20.8798 17.0239 16.334 16.8212 16.1057C16.6187 15.8775 16.4041 15.5369 16.9854 15.5369C17.5669 15.5369 23.2793 15.5868 23.7723 15.6208C24.2655 15.6549 24.411 15.9425 24.411 16.1881C24.411 16.4337 24.2639 17.7515 23.7723 18.927ZM18.2819 23.984C17.1031 24.4677 16.2627 24.4359 15.9914 24.4378C15.7202 24.4396 15.5957 24.1819 15.5376 23.984C15.4796 23.786 15.4374 17.3237 15.4555 17.0191C15.4738 16.7144 15.4688 16.3766 15.8799 16.7878C16.2911 17.1989 20.2952 21.2735 20.6196 21.6461C20.9443 22.0189 20.8438 22.3252 20.67 22.4989C20.4964 22.6726 19.4607 23.5003 18.2818 23.984H18.2819ZM11.0758 23.8876C9.90039 23.3961 9.21719 22.6909 9.02394 22.5004C8.83082 22.31 8.92504 22.0396 9.02394 21.8586C9.12297 21.6775 13.6688 17.1391 13.8971 16.9365C14.1253 16.734 14.4659 16.5193 14.4659 17.1007C14.4659 17.6821 14.416 23.3946 14.382 23.8876C14.3479 24.3807 14.0603 24.5262 13.8147 24.5262C13.5691 24.5262 12.2513 24.3792 11.0758 23.8876ZM6.01879 18.3971C5.53516 17.2183 5.56691 16.378 5.56504 16.1067C5.56316 15.8354 5.82086 15.7109 6.01879 15.6528C6.21684 15.5948 12.6791 15.5526 12.9837 15.5708C13.2884 15.5891 13.6262 15.584 13.215 15.9951C12.8039 16.4063 8.72934 20.4104 8.35668 20.7349C7.98391 21.0595 7.67758 20.9591 7.50391 20.7853C7.33023 20.6116 6.50254 19.5759 6.01879 18.397V18.3971Z" fill="white"/>
</svg>
